<?xml version="1.0" encoding="iso-8859-1"?>
<!-- Uploaded to: SVG Repo, www.svgrepo.com, Generator: SVG Repo Mixer Tools -->
<svg fill="#000000" version="1.1" id="Layer_1" xmlns="http://www.w3.org/2000/svg" xmlns:xlink="http://www.w3.org/1999/xlink" 
	 viewBox="0 0 512 512" xml:space="preserve">
<g>
	<g>
		<g>
			<path d="M503.467,128h-34.133c-1.596,0-3.166,0.452-4.523,1.297L409.6,163.806v116.122l55.211,34.509
				c1.357,0.845,2.927,1.297,4.523,1.297h34.133c4.71,0,8.533-3.814,8.533-8.533V136.533C512,131.814,508.177,128,503.467,128z"/>
			<rect x="196.267" y="264.533" width="119.467" height="17.067"/>
			<path d="M290.133,196.267c9.412,0,17.067-7.654,17.067-17.067s-7.654-17.067-17.067-17.067c-9.412,0-17.067,7.654-17.067,17.067
				S280.721,196.267,290.133,196.267z"/>
			<path d="M375.467,145.067c0-18.825-15.309-34.133-34.133-34.133h-181.18l39.825-42.667h16.35
				c4.804,10.052,14.993,17.067,26.863,17.067h76.817c16.461,0,29.858-13.389,29.858-29.858V29.858
				C349.867,13.389,336.469,0,320.009,0h-76.817c-11.87,0-22.059,7.014-26.863,17.067h-35.669c-2.372,0-4.651,0.99-6.263,2.739
				l-84.258,91.128h-9.071l-20.471-27.29C57.387,79.36,52.284,76.8,46.933,76.8h-12.8C15.309,76.8,0,92.109,0,110.933v136.533
				h42.667c4.71,0,8.533,3.814,8.533,8.533s-3.823,8.533-8.533,8.533H0V281.6h59.733c4.71,0,8.533,3.814,8.533,8.533
				s-3.823,8.533-8.533,8.533H0C0,317.491,15.309,332.8,34.133,332.8h76.8v25.6c0,4.719,3.823,8.533,8.533,8.533h25.6v25.6
				c0,4.719,3.823,8.533,8.533,8.533h13.534l-96.367,96.367c-3.337,3.337-3.337,8.73,0,12.066c1.664,1.664,3.849,2.5,6.033,2.5
				c2.185,0,4.369-0.836,6.033-2.5l96.367-96.367v90.334c0,4.719,3.823,8.533,8.533,8.533s8.533-3.814,8.533-8.533v-90.334
				l96.367,96.367c1.664,1.664,3.849,2.5,6.033,2.5c2.185,0,4.369-0.836,6.033-2.5c3.336-3.336,3.336-8.73,0-12.066l-96.367-96.367
				h13.534c4.71,0,8.533-3.814,8.533-8.533v-25.6H256c4.71,0,8.533-3.814,8.533-8.533v-25.6h76.8
				c18.825,0,34.133-15.309,34.133-34.133v-25.6h17.067v-102.4h-17.067V145.067z M290.133,145.067
				c18.825,0,34.133,15.309,34.133,34.133s-15.309,34.133-34.133,34.133S256,198.025,256,179.2S271.309,145.067,290.133,145.067z
				 M113.382,110.933l71.014-76.8h28.937V51.2h-17.067c-2.364,0-4.625,0.981-6.238,2.705l-53.214,57.028H113.382z M247.467,349.867
				h-25.6H153.6H128V332.8h119.467V349.867z M332.8,290.133c0,4.719-3.823,8.533-8.533,8.533H187.733
				c-4.71,0-8.533-3.814-8.533-8.533V256c0-4.719,3.823-8.533,8.533-8.533h136.533c4.71,0,8.533,3.814,8.533,8.533V290.133z"/>
		</g>
	</g>
</g>
</svg>