<svg xmlns="http://www.w3.org/2000/svg" width="36.797" height="41.667" fill="none"><path fill="url(#a)" d="M29.218 17.445a2.908 2.908 0 0 0-.328-.517c-.12-.176-.255-.346-.388-.522l-.103-.129a15.769 15.769 0 0 0-.503-.604l-.158-.17c-.14-.147-.273-.3-.412-.435l-.073-.07a14.184 14.184 0 0 0-3.334-2.37 6.79 6.79 0 0 1-1.503-1.087c-1.28-1.302-1.558-1.778-.722-4.741-5.965.933-12.748 7.306-14.179 10.698-.006.011 0 .029-.012.04a11.912 11.912 0 0 0-1.29 3.034 11.738 11.738 0 0 0 1.405 9.36c3.558 5.774 11.282 7.658 17.247 4.213 5.965-3.444 7.91-10.92 4.352-16.694v-.006z" style="mix-blend-mode:overlay;fill:#fff;stroke:none;filter:url(#b)" transform="translate(.924 2.31)"/><path fill="url(#c)" d="M23.925 12.622a6.782 6.782 0 0 1-1.503-1.086c-1.28-1.303-1.558-1.778-.72-4.741-5.967.933-12.75 7.305-14.18 10.697-.007.012 0 .03-.013.041-.57.95-1.006 1.972-1.29 3.034 5.794 3.539 15.627-.728 17.706-7.945z" style="fill:url(#c)" transform="translate(.924 2.31)"/><path fill="url(#d)" d="M29.218 17.445a2.902 2.902 0 0 0-.328-.517c-.12-.176-.255-.346-.388-.522l-.103-.13a15.772 15.772 0 0 0-.503-.604l-.158-.17c.685 12.98-11.65 19.823-20.108 14.424 3.595 5.75 11.324 7.6 17.265 4.12 5.898-3.451 7.826-10.857 4.322-16.601z" style="fill:url(#d)" transform="translate(.924 2.31)"/><path fill="url(#e)" d="M27.738 15.502c-.139-.146-.272-.299-.412-.434l-.072-.07a14.189 14.189 0 0 0-3.335-2.37c-2.079 7.216-11.906 11.482-17.7 7.944a11.738 11.738 0 0 0 1.405 9.36c8.47 5.398 20.8-1.45 20.114-14.43Z" style="fill:url(#e)" transform="translate(.924 2.31)"/><path fill="url(#a)" d="M29.218 17.445a2.908 2.908 0 0 0-.328-.517c-.12-.176-.255-.346-.388-.522l-.103-.129a15.769 15.769 0 0 0-.503-.604l-.158-.17c-.14-.147-.273-.3-.412-.435l-.073-.07a14.184 14.184 0 0 0-3.334-2.37 6.79 6.79 0 0 1-1.503-1.087c-1.28-1.302-1.558-1.778-.722-4.741-5.965.933-12.748 7.306-14.179 10.698-.006.011 0 .029-.012.04a11.912 11.912 0 0 0-1.29 3.034 11.738 11.738 0 0 0 1.405 9.36c3.558 5.774 11.282 7.658 17.247 4.213 5.965-3.444 7.91-10.92 4.352-16.694v-.006z" style="mix-blend-mode:overlay;fill:url(#a)" transform="translate(.924 2.31)"/><defs><linearGradient id="c" x1="18.591" x2="12.658" y1="10.351" y2="18.244" gradientTransform="translate(.568 1.572)" gradientUnits="userSpaceOnUse"><stop stop-color="#FFB238"/><stop offset=".26" stop-color="#FF8F38"/><stop offset="1" stop-color="#FF0038"/></linearGradient><linearGradient id="d" x1="24.555" x2="19.341" y1="15.874" y2="29.364" gradientTransform="translate(.568 1.572)" gradientUnits="userSpaceOnUse"><stop stop-color="#FEF500"/><stop offset="1" stop-color="#84CC00"/></linearGradient><linearGradient id="e" x1="23.042" x2="12.211" y1="16.138" y2="26.306" gradientTransform="translate(.568 1.572)" gradientUnits="userSpaceOnUse"><stop stop-color="#32FCFF"/><stop offset=".51" stop-color="#00DDE0"/><stop offset="1" stop-color="#00B4BD"/></linearGradient><linearGradient id="a" x1="17.572" x2="19.348" y1="18.425" y2="32.105" gradientTransform="translate(.568 1.572)" gradientUnits="userSpaceOnUse"><stop stop-opacity="0"/><stop offset="1"/></linearGradient><filter id="b" width="1.46" height="1.433" x="-.23" y="-.234" style="color-interpolation-filters:sRGB"><feFlood flood-color="#000" flood-opacity=".898" result="flood"/><feGaussianBlur in="SourceGraphic" result="blur" stdDeviation="1"/><feOffset dx="1" dy="1" in="blur" result="offset"/><feComposite in="flood" in2="offset" operator="in" result="comp1"/><feComposite in="comp1" in2="comp1" operator="atop" result="fbSourceGraphic"/><feColorMatrix in="fbSourceGraphic" result="fbSourceGraphicAlpha" values="0 0 0 -1 0 0 0 0 -1 0 0 0 0 -1 0 0 0 0 1 0"/><feFlood flood-color="#000" flood-opacity="1" result="flood"/><feGaussianBlur in="fbSourceGraphic" result="blur" stdDeviation="1"/><feOffset dx="-1" dy="-2" in="blur" result="offset"/><feComposite in="flood" in2="offset" operator="in" result="comp1"/><feComposite in="comp1" in2="comp1" operator="atop" result="comp2"/></filter></defs></svg>